<?xml version="1.0" encoding="UTF-8" standalone="no"?>
<svg
   xmlns:dc="http://purl.org/dc/elements/1.1/"
   xmlns:cc="http://creativecommons.org/ns#"
   xmlns:rdf="http://www.w3.org/1999/02/22-rdf-syntax-ns#"
   xmlns:svg="http://www.w3.org/2000/svg"
   xmlns="http://www.w3.org/2000/svg"
   viewBox="0 0 528 193.33333"
   height="193.33333"
   width="528"
   xml:space="preserve"
   id="svg2"
   version="1.1"><metadata
     id="metadata8"><rdf:RDF><cc:Work
         rdf:about=""><dc:format>image/svg+xml</dc:format><dc:type
           rdf:resource="http://purl.org/dc/dcmitype/StillImage" /></cc:Work></rdf:RDF></metadata><defs
     id="defs6" /><g
     transform="matrix(1.3333333,0,0,-1.3333333,0,193.33333)"
     id="g10"><g
       transform="scale(0.1)"
       id="g12"><path
         id="path14"
         style="fill:#264278;fill-opacity:1;fill-rule:evenodd;stroke:none"
         d="M 548.98,84.4883 C 415,87.8086 303.48,133.98 214.488,222.969 125.512,311.988 79.3398,423.48 75.9805,557.5 c 0,0 0,0.16 0,0.469 C 77.3398,655 103.672,741.988 155,818.98 L 280,600.469 c 28.012,-46.328 54.141,-105.821 78.48,-178.481 24.68,-72.648 41.36,-163.008 50,-271.008 44.329,-15.32 91.168,-23.171 140.5,-23.48 48.36,0.309 94.34,7.969 138.008,22.969 9.653,119.019 28.012,216.011 55,291.011 26.992,74.649 55.821,135.36 86.492,182 L 940.512,822.5 c 52.648,-78.012 79.648,-166.172 80.968,-264.531 0,-0.309 0,-0.469 0,-0.469 C 1018.16,423.48 971.988,311.988 883.012,222.969 793.98,133.98 682.66,87.8086 548.98,84.4883 m 227.5,971.9917 c -16.64,58.68 -58.468,90.36 -125.5,95 -0.32,0 -8.171,-0.15 -23.48,-0.5 v -51.49 h -76.02 v -35.51 h 76.02 v -63 H 551.48 V 965.469 H 627.5 V 913.98 c 15.309,-0.351 23.16,-0.5 23.48,-0.5 52.032,2.34 90,23.821 114.02,64.489 41.988,-21.641 79.648,-48.629 113.012,-80.981 L 694.488,645.469 C 651.84,588.48 602.34,559.488 545.98,558.48 c -56.332,1.008 -105.82,30 -148.48,86.989 L 216.48,893.48 c 34.032,33.668 72.86,61.829 116.532,84.489 23.629,-40.668 61.636,-62.149 113.976,-64.489 0,0.348 7.66,0.5 23.012,0.5 v 237 c -15.352,0.35 -23.012,0.5 -23.012,0.5 C 380,1146.84 338.012,1115.16 320.98,1056.48 221.988,1010.16 143.98,942.809 86.9883,854.488 30,766.129 0.980469,667.148 0,557.5 3.98047,402.148 57.6602,272.809 160.98,169.488 264.34,66.1289 393.672,12.5 548.98,8.48047 704.34,12.5 833.48,66.1289 936.48,169.488 c 103.36,103.321 157,232.66 161.02,388.012 -1.02,109.648 -30,208.629 -86.99,296.988 -57.03,88.321 -134.998,155.672 -234.03,201.992" /><path
         id="path16"
         style="fill:#264278;fill-opacity:1;fill-rule:evenodd;stroke:none"
         d="m 435.98,724.488 c 0.661,-31.988 11.68,-58.668 33,-80 21.329,-21.328 47.86,-32.34 79.5,-33.008 32.032,0.668 58.668,11.68 80,33.008 21.36,21.332 32.34,48.012 33,80 -0.66,31.641 -11.64,58.172 -33,79.492 -21.332,21.329 -47.968,32.348 -80,33.008 -31.64,-0.66 -58.171,-11.679 -79.5,-33.008 -21.32,-21.32 -32.339,-47.851 -33,-79.492" /><path
         id="path18"
         style="fill:#de6323;fill-opacity:1;fill-rule:evenodd;stroke:none"
         d="m 903.48,1450 -218.992,-128.52 40,-18.98 -125,-125 218.992,127.97 -40,19.53 125,125" /><path
         id="path20"
         style="fill:#de6323;fill-opacity:1;fill-rule:evenodd;stroke:none"
         d="M 419.488,1321.48 200.512,1450 l 125,-125 -40,-19.53 218.976,-127.97 -125,125 40,18.98" /><path
         id="path22"
         style="fill:#de6426;fill-opacity:1;fill-rule:nonzero;stroke:none"
         d="m 1325.74,641.02 4.53,-39.692 7.19,35.152 56.88,247.969 h 37.34 l 55.16,-247.969 7.03,-36.25 5.15,41.098 43.44,243.121 h 44.69 L 1516.37,528.98 h -40.32 l -59.21,259.071 -3.75,20.929 -3.6,-20.929 -61.56,-259.071 h -40.47 l -70.62,355.469 h 44.68 z m 353.52,-112.04 h -43.2813 v 264.219 h 43.2813 z m 3.44,334.219 c 0,-7.301 -2.11,-13.398 -6.25,-18.277 -4.07,-4.922 -10.24,-7.344 -18.44,-7.344 -8.13,0 -14.22,2.422 -18.28,7.344 -4.07,4.879 -6.1,10.976 -6.1,18.277 0,7.27 2.03,13.442 6.1,18.442 4.06,5.078 10.15,7.66 18.28,7.66 8.12,0 14.26,-2.582 18.44,-7.66 4.14,-5.121 6.25,-11.25 6.25,-18.442 z" /><path
         id="path24"
         style="fill:#de6426;fill-opacity:1;fill-rule:nonzero;stroke:none"
         d="m 1856.02,752.578 c -6.06,1.133 -12.58,1.723 -19.54,1.723 -22.18,0 -37.65,-12.153 -46.4,-36.41 V 528.98 h -43.28 v 264.219 h 42.03 l 0.78,-26.871 c 11.56,21.133 27.89,31.723 49.06,31.723 6.76,0 12.42,-1.172 17.03,-3.442 z" /><path
         id="path26"
         style="fill:#de6426;fill-opacity:1;fill-rule:nonzero;stroke:none"
         d="m 1988.79,524.141 c -32.93,0 -58.2,9.769 -75.78,29.379 -17.5,19.57 -26.41,48.32 -26.72,86.25 v 32.031 c 0,39.371 8.51,70.23 25.62,92.648 17.19,22.391 41.18,33.602 72.04,33.602 30.93,0 53.98,-9.852 69.21,-29.531 15.32,-19.692 23.13,-50.399 23.44,-92.04 v -28.281 h -147.34 v -6.25 c 0,-28.238 5.31,-48.828 15.94,-61.719 10.62,-12.808 25.97,-19.21 46.09,-19.21 12.58,0 23.75,2.378 33.44,7.179 9.68,4.77 18.79,12.391 27.34,22.821 l 22.34,-27.348 c -18.67,-26.371 -47.18,-39.531 -85.62,-39.531 z m -4.84,236.718 c -17.93,0 -31.22,-6.168 -39.85,-18.437 -8.67,-12.301 -13.55,-31.371 -14.69,-57.192 h 104.07 v 5.942 c -1.18,25 -5.71,42.848 -13.6,53.598 -7.93,10.699 -19.92,16.089 -35.93,16.089 z" /><path
         id="path28"
         style="fill:#de6426;fill-opacity:1;fill-rule:nonzero;stroke:none"
         d="m 2119.57,673.051 c 0,40.699 7.58,71.719 22.81,92.969 15.32,21.32 37.19,32.031 65.63,32.031 25.19,0 44.88,-10.281 59.06,-30.781 v 136.71 h 43.28 v -375 h -39.53 l -2.19,28.29 c -14.18,-22.11 -34.45,-33.129 -60.78,-33.129 -27.42,0 -48.87,10.629 -64.37,31.879 -15.55,21.25 -23.52,51.171 -23.91,89.839 z m 43.28,-24.692 c 0,-29.609 4.38,-51.371 13.13,-65.308 8.82,-13.871 23.16,-20.781 42.97,-20.781 21.56,0 37.57,10.781 48.12,32.339 v 133.282 c -11.05,21.25 -26.99,31.879 -47.81,31.879 -19.92,0 -34.22,-7 -42.97,-20.942 -8.75,-13.988 -13.24,-35.308 -13.44,-64.058 z" /><path
         id="path30"
         style="fill:#de6426;fill-opacity:1;fill-rule:nonzero;stroke:none"
         d="m 1354.8,257.582 h -75.46 v -75.633 h 87.81 V 158.98 h -114.69 v 213.29 h 113.28 v -23.129 h -86.4 v -68.59 h 75.46 z m 70.86,-98.602 h -25.9297 v 225 h 25.9297 z" /><path
         id="path32"
         style="fill:#de6426;fill-opacity:1;fill-rule:nonzero;stroke:none"
         d="m 1522.97,156.02 c -19.81,0 -34.96,5.859 -45.47,17.652 -10.55,11.758 -15.9,29.058 -16.09,51.879 v 19.058 c 0,23.629 5.15,42.192 15.47,55.621 10.31,13.442 24.68,20.161 43.12,20.161 18.52,0 32.38,-5.942 41.56,-17.809 9.14,-11.801 13.83,-30.16 14.06,-55.16 v -16.871 h -88.43 v -3.75 c 0,-17 3.16,-29.34 9.53,-37.031 6.44,-7.739 15.66,-11.571 27.66,-11.571 7.57,0 14.29,1.41 20.15,4.223 5.82,2.887 11.25,7.5 16.25,13.75 l 13.6,-16.402 c -11.26,-15.86 -28.4,-23.75 -51.41,-23.75 z M 1520,298.199 c -10.74,0 -18.71,-3.711 -23.91,-11.09 -5.23,-7.418 -8.12,-18.871 -8.75,-34.379 h 62.35 v 3.602 c -0.63,15 -3.36,25.699 -8.13,32.188 -4.68,6.441 -11.87,9.679 -21.56,9.679 z" /><path
         id="path34"
         style="fill:#de6426;fill-opacity:1;fill-rule:nonzero;stroke:none"
         d="m 1661.88,178.199 c 8.63,0 15.5,2.66 20.62,7.973 5.2,5.308 8.05,12.887 8.59,22.808 h 24.38 c -0.55,-15.308 -5.9,-27.96 -16.09,-37.96 -10.24,-10 -22.74,-15 -37.5,-15 -19.61,0 -34.54,6.128 -44.85,18.429 -10.31,12.391 -15.47,30.821 -15.47,55.321 v 17.339 c 0,23.942 5.08,42.11 15.32,54.532 10.31,12.5 25.23,18.75 44.84,18.75 16.25,0 29.1,-5.161 38.59,-15.469 9.57,-10.231 14.61,-24.184 15.16,-41.871 h -24.38 c -0.62,11.64 -3.43,20.39 -8.43,26.25 -5,5.929 -12,8.898 -20.94,8.898 -11.49,0 -20,-3.82 -25.63,-11.398 -5.54,-7.621 -8.39,-20.082 -8.59,-37.352 v -20.148 c 0,-18.68 2.73,-31.84 8.28,-39.531 5.51,-7.739 14.22,-11.571 26.1,-11.571 z" /><path
         id="path36"
         style="fill:#de6426;fill-opacity:1;fill-rule:nonzero;stroke:none"
         d="m 1779.65,355.859 v -38.437 h 23.9 V 296.48 h -23.9 v -98.281 c 0,-6.25 1.01,-11.008 3.12,-14.219 2.07,-3.242 5.55,-4.839 10.47,-4.839 3.44,0 6.92,0.629 10.47,1.879 l -0.31,-22.04 c -5.86,-1.949 -11.84,-2.96 -17.97,-2.96 -10.31,0 -18.2,3.628 -23.59,10.929 -5.32,7.391 -7.97,17.742 -7.97,31.102 v 98.429 h -24.07 v 20.942 h 24.07 v 38.437 z" /><path
         id="path38"
         style="fill:#de6426;fill-opacity:1;fill-rule:nonzero;stroke:none"
         d="m 1899.69,293.199 c -3.67,0.633 -7.58,0.942 -11.72,0.942 -13.36,0 -22.62,-7.262 -27.81,-21.719 V 158.98 h -25.94 v 158.442 h 25.16 l 0.46,-16.09 c 6.88,12.688 16.64,19.059 29.38,19.059 4.14,0 7.58,-0.7 10.31,-2.032 z" /><path
         id="path40"
         style="fill:#de6426;fill-opacity:1;fill-rule:nonzero;stroke:none"
         d="m 1953.59,158.98 h -25.9297 v 158.441 h 25.9297 z m 2.03,200.469 c 0,-4.367 -1.24,-8.039 -3.74,-10.929 -2.43,-2.93 -6.1,-4.379 -11.1,-4.379 -4.92,0 -8.55,1.449 -10.94,4.379 -2.42,2.89 -3.59,6.562 -3.59,10.929 0,4.461 1.17,8.211 3.59,11.25 2.39,3.012 6.02,4.531 10.94,4.531 4.88,0 8.6,-1.558 11.1,-4.679 2.5,-3.051 3.74,-6.719 3.74,-11.102 z" /><path
         id="path42"
         style="fill:#de6426;fill-opacity:1;fill-rule:nonzero;stroke:none"
         d="m 2049.18,178.199 c 8.63,0 15.51,2.66 20.62,7.973 5.2,5.308 8.05,12.887 8.6,22.808 h 24.37 c -0.54,-15.308 -5.89,-27.96 -16.09,-37.96 -10.23,-10 -22.73,-15 -37.5,-15 -19.61,0 -34.53,6.128 -44.84,18.429 -10.32,12.391 -15.47,30.821 -15.47,55.321 v 17.339 c 0,23.942 5.08,42.11 15.31,54.532 10.31,12.5 25.23,18.75 44.84,18.75 16.25,0 29.1,-5.161 38.6,-15.469 9.57,-10.231 14.61,-24.184 15.15,-41.871 h -24.37 c -0.63,11.64 -3.44,20.39 -8.44,26.25 -5,5.929 -11.99,8.898 -20.94,8.898 -11.48,0 -20,-3.82 -25.62,-11.398 -5.55,-7.621 -8.4,-20.082 -8.6,-37.352 v -20.148 c 0,-18.68 2.74,-31.84 8.29,-39.531 5.5,-7.739 14.21,-11.571 26.09,-11.571 z" /><path
         id="path44"
         style="fill:#de6426;fill-opacity:1;fill-rule:nonzero;stroke:none"
         d="m 2214.61,158.98 c -1.56,3.442 -2.73,9.219 -3.44,17.352 -9.18,-13.562 -20.9,-20.312 -35.15,-20.312 -14.3,0 -25.47,3.98 -33.6,12.031 -8.04,8.121 -12.03,19.531 -12.03,34.219 0,16.011 5.47,28.781 16.41,38.281 10.93,9.449 25.93,14.289 45,14.531 h 19.06 v 16.867 c 0,9.461 -2.15,16.172 -6.41,20.16 -4.18,4.063 -10.58,6.09 -19.22,6.09 -7.81,0 -14.18,-2.34 -19.06,-7.027 -4.8,-4.613 -7.19,-10.473 -7.19,-17.652 h -25.93 c 0,8.121 2.38,15.859 7.18,23.281 4.77,7.379 11.18,13.16 19.22,17.34 8.13,4.14 17.19,6.25 27.19,6.25 16.25,0 28.59,-4.059 37.03,-12.192 8.44,-8.039 12.74,-19.758 12.97,-35.148 v -80 c 0.08,-12.192 1.72,-22.781 4.84,-31.723 v -2.348 z m -34.53,20.629 c 6.33,0 12.38,1.762 18.12,5.313 5.71,3.519 9.92,7.887 12.66,13.129 v 37.808 h -14.69 c -12.3,-0.238 -22.03,-2.968 -29.22,-8.277 -7.11,-5.312 -10.62,-12.781 -10.62,-22.352 0,-8.98 1.76,-15.46 5.31,-19.531 3.63,-4.058 9.77,-6.09 18.44,-6.09 z" /><path
         id="path46"
         style="fill:#de6426;fill-opacity:1;fill-rule:nonzero;stroke:none"
         d="m 2278.63,158.98 h 25.9414 v 225 H 2278.63 Z" /><path
         id="path48"
         style="fill:#de6426;fill-opacity:1;fill-rule:nonzero;stroke:none"
         d="m 2510.43,212.891 c 0,10.629 -2.89,18.75 -8.59,24.379 -5.75,5.699 -16.18,11.25 -31.25,16.562 -15,5.387 -26.53,11.09 -34.54,17.027 -7.93,5.942 -13.86,12.661 -17.81,20.161 -3.98,7.57 -5.94,16.281 -5.94,26.089 0,16.871 5.63,30.782 16.88,41.723 11.33,10.938 26.13,16.398 44.37,16.398 12.5,0 23.64,-2.808 33.44,-8.429 9.77,-5.629 17.27,-13.442 22.5,-23.442 5.31,-9.918 7.97,-20.859 7.97,-32.808 h -27.03 c 0,13.199 -3.2,23.429 -9.53,30.621 -6.25,7.269 -15.39,10.937 -27.35,10.937 -10.85,0 -19.21,-3.089 -25.15,-9.218 -5.94,-6.051 -8.91,-14.532 -8.91,-25.469 0,-8.981 3.21,-16.481 9.69,-22.5 6.44,-6.051 16.41,-11.481 29.84,-16.25 20.94,-6.992 35.94,-15.582 45,-25.781 9.07,-10.121 13.6,-23.36 13.6,-39.692 0,-17.301 -5.63,-31.168 -16.88,-41.558 -11.25,-10.43 -26.52,-15.621 -45.78,-15.621 -12.42,0 -23.87,2.73 -34.37,8.121 -10.55,5.39 -18.83,13.007 -24.85,22.808 -5.94,9.891 -8.9,21.172 -8.9,33.91 h 26.87 c 0,-13.238 3.67,-23.558 11.09,-30.937 7.39,-7.301 17.43,-10.942 30.16,-10.942 11.76,0 20.63,3.008 26.56,9.071 5.94,6.129 8.91,14.41 8.91,24.84 z" /><path
         id="path50"
         style="fill:#de6426;fill-opacity:1;fill-rule:nonzero;stroke:none"
         d="m 2625.7,156.02 c -19.8,0 -34.96,5.859 -45.47,17.652 -10.54,11.758 -15.89,29.058 -16.09,51.879 v 19.058 c 0,23.629 5.16,42.192 15.47,55.621 10.31,13.442 24.69,20.161 43.12,20.161 18.52,0 32.39,-5.942 41.57,-17.809 9.14,-11.801 13.82,-30.16 14.06,-55.16 v -16.871 h -88.44 v -3.75 c 0,-17 3.17,-29.34 9.53,-37.031 6.45,-7.739 15.67,-11.571 27.66,-11.571 7.58,0 14.3,1.41 20.16,4.223 5.82,2.887 11.25,7.5 16.25,13.75 l 13.59,-16.402 c -11.25,-15.86 -28.4,-23.75 -51.41,-23.75 z m -2.97,142.179 c -10.74,0 -18.71,-3.711 -23.9,-11.09 -5.24,-7.418 -8.13,-18.871 -8.75,-34.379 h 62.34 v 3.602 c -0.62,15 -3.36,25.699 -8.12,32.188 -4.69,6.441 -11.88,9.679 -21.57,9.679 z" /><path
         id="path52"
         style="fill:#de6426;fill-opacity:1;fill-rule:nonzero;stroke:none"
         d="m 2775.08,293.199 c -3.67,0.633 -7.58,0.942 -11.72,0.942 -13.36,0 -22.62,-7.262 -27.81,-21.719 V 158.98 h -25.94 v 158.442 h 25.16 l 0.46,-16.09 c 6.88,12.688 16.65,19.059 29.38,19.059 4.14,0 7.58,-0.7 10.31,-2.032 z" /><path
         id="path54"
         style="fill:#de6426;fill-opacity:1;fill-rule:nonzero;stroke:none"
         d="m 2848.95,198.359 30,119.063 h 26.4 L 2858.32,158.98 h -19.37 l -47.66,158.442 h 26.41 z" /><path
         id="path56"
         style="fill:#de6426;fill-opacity:1;fill-rule:nonzero;stroke:none"
         d="m 2960.23,158.98 h -25.9297 v 158.441 h 25.9297 z m 2.04,200.469 c 0,-4.367 -1.25,-8.039 -3.75,-10.929 -2.43,-2.93 -6.1,-4.379 -11.1,-4.379 -4.92,0 -8.55,1.449 -10.94,4.379 -2.42,2.89 -3.59,6.562 -3.59,10.929 0,4.461 1.17,8.211 3.59,11.25 2.39,3.012 6.02,4.531 10.94,4.531 4.88,0 8.6,-1.558 11.1,-4.679 2.5,-3.051 3.75,-6.719 3.75,-11.102 z" /><path
         id="path58"
         style="fill:#de6426;fill-opacity:1;fill-rule:nonzero;stroke:none"
         d="m 3055.82,178.199 c 8.63,0 15.51,2.66 20.63,7.973 5.19,5.308 8.04,12.887 8.59,22.808 h 24.37 c -0.54,-15.308 -5.89,-27.96 -16.09,-37.96 -10.23,-10 -22.73,-15 -37.5,-15 -19.61,0 -34.53,6.128 -44.84,18.429 -10.32,12.391 -15.47,30.821 -15.47,55.321 v 17.339 c 0,23.942 5.08,42.11 15.31,54.532 10.31,12.5 25.23,18.75 44.84,18.75 16.25,0 29.11,-5.161 38.6,-15.469 9.57,-10.231 14.61,-24.184 15.15,-41.871 h -24.37 c -0.63,11.64 -3.44,20.39 -8.44,26.25 -5,5.929 -11.99,8.898 -20.94,8.898 -11.48,0 -20,-3.82 -25.62,-11.398 -5.55,-7.621 -8.4,-20.082 -8.59,-37.352 v -20.148 c 0,-18.68 2.73,-31.84 8.28,-39.531 5.5,-7.739 14.22,-11.571 26.09,-11.571 z" /><path
         id="path60"
         style="fill:#de6426;fill-opacity:1;fill-rule:nonzero;stroke:none"
         d="m 3196.41,156.02 c -19.81,0 -34.96,5.859 -45.47,17.652 -10.55,11.758 -15.9,29.058 -16.1,51.879 v 19.058 c 0,23.629 5.16,42.192 15.47,55.621 10.31,13.442 24.69,20.161 43.13,20.161 18.51,0 32.38,-5.942 41.56,-17.809 9.14,-11.801 13.83,-30.16 14.06,-55.16 v -16.871 h -88.44 v -3.75 c 0,-17 3.17,-29.34 9.54,-37.031 6.44,-7.739 15.66,-11.571 27.65,-11.571 7.58,0 14.3,1.41 20.16,4.223 5.82,2.887 11.25,7.5 16.25,13.75 l 13.59,-16.402 c -11.25,-15.86 -28.4,-23.75 -51.4,-23.75 z m -2.97,142.179 c -10.74,0 -18.71,-3.711 -23.91,-11.09 -5.23,-7.418 -8.12,-18.871 -8.75,-34.379 h 62.34 v 3.602 c -0.62,15 -3.35,25.699 -8.12,32.188 -4.69,6.441 -11.88,9.679 -21.56,9.679 z" /><path
         id="path62"
         style="fill:#de6426;fill-opacity:1;fill-rule:nonzero;stroke:none"
         d="m 3357.34,199.609 c 0,5.512 -2.14,10.231 -6.4,14.223 -4.18,4.059 -12.27,8.789 -24.22,14.219 -13.99,5.699 -23.83,10.621 -29.53,14.679 -5.74,4.149 -10,8.829 -12.81,14.071 -2.82,5.187 -4.22,11.398 -4.22,18.59 0,12.89 4.68,23.629 14.06,32.191 9.45,8.508 21.48,12.809 36.09,12.809 15.51,0 27.97,-4.493 37.35,-13.442 9.37,-8.98 14.06,-20.469 14.06,-34.527 h -25.78 c 0,7.066 -2.42,13.129 -7.19,18.129 -4.8,5.07 -10.94,7.648 -18.44,7.648 -7.61,0 -13.59,-1.988 -17.97,-5.929 -4.29,-3.989 -6.4,-9.301 -6.4,-15.938 0,-5.312 1.56,-9.613 4.68,-12.812 3.21,-3.25 10.86,-7.469 22.97,-12.661 19.26,-7.5 32.35,-14.839 39.22,-22.027 6.96,-7.191 10.47,-16.332 10.47,-27.352 0,-13.75 -4.76,-24.8 -14.22,-33.121 -9.49,-8.238 -22.18,-12.339 -38.12,-12.339 -16.49,0 -29.85,4.718 -40.16,14.21 -10.23,9.461 -15.31,21.489 -15.31,36.102 h 26.09 c 0.32,-8.871 2.97,-15.781 7.97,-20.781 5.08,-4.93 12.23,-7.352 21.41,-7.352 8.63,0 15.19,1.922 19.68,5.781 4.46,3.829 6.72,9.071 6.72,15.629 z" /><path
         id="path64"
         style="fill:#de6426;fill-opacity:1;fill-rule:nonzero;stroke:none"
         d="m 3417.15,116.48 -15.47,10.629 c 9.14,12.731 13.94,25.903 14.37,39.532 v 24.379 h 26.57 v -21.25 c 0,-9.809 -2.46,-19.61 -7.35,-29.54 -4.8,-9.878 -10.86,-17.808 -18.12,-23.75 z" /><path
         id="path66"
         style="fill:#de6426;fill-opacity:1;fill-rule:nonzero;stroke:none"
         d="m 3575.2,181.949 h 83.59 V 158.98 h -110.63 v 213.29 h 27.04 z" /><path
         id="path68"
         style="fill:#de6426;fill-opacity:1;fill-rule:nonzero;stroke:none"
         d="m 3717.58,181.949 h 83.59 V 158.98 h -110.62 v 213.29 h 27.03 z" /><path
         id="path70"
         style="fill:#de6426;fill-opacity:1;fill-rule:nonzero;stroke:none"
         d="m 3957.3,226.641 c -1.17,-22.809 -7.57,-40.309 -19.21,-52.5 -11.68,-12.11 -28.21,-18.121 -49.54,-18.121 -21.36,0 -38.35,8.121 -50.93,24.371 -12.62,16.25 -18.91,38.32 -18.91,66.25 v 38.589 c 0,27.7 6.45,49.61 19.38,65.79 13,16.128 30.66,24.21 52.96,24.21 20.63,0 36.57,-6.21 47.82,-18.589 11.33,-12.301 17.5,-29.961 18.43,-52.969 h -27.03 c -1.25,17.379 -4.96,29.769 -11.09,37.187 -6.17,7.5 -15.55,11.25 -28.13,11.25 -14.49,0 -25.62,-5.738 -33.43,-17.187 -7.82,-11.371 -11.72,-28.043 -11.72,-50 v -39.063 c 0,-21.558 3.59,-38.129 10.78,-49.687 7.27,-11.481 17.89,-17.192 31.87,-17.192 14.07,0 24.15,3.442 30.32,10.321 6.13,6.949 9.92,19.41 11.4,37.34 z" /></g></g></svg>